PathFileType	4	(X/Y/Z)	C:/Users/beibeiliu/ov580/test_trc/User3\sequence.4_training_dense_left.trc
DataRate	CameraRate	NumFrames	NumMarkers	Units	OrigDataRate	OrigDataStartFrame	OrigNumFrames
120	120	9	19	mm	120	62	92
Frame#	Time	ThumbCMC			ThumbMCP			ThumbIP			ThumbTip			IndexMCP			IndexPIP			IndexTip			MiddleMCP			MiddlePIP			MiddleTip			RingMCP			RingPIP			RingTip			PinkyMCP			PinkyPIP			PinkyTip			BackHand1			BackHand2			BackHand3	
		X0	Y0	Z0	X1	Y1	Z1	X2	Y2	Z2	X3	Y3	Z3	X4	Y4	Z4	X5	Y5	Z5	X6	Y6	Z6	X7	Y7	Z7	X8	Y8	Z8	X9	Y9	Z9	X10	Y10	Z10	X11	Y11	Z11	X12	Y12	Z12	X13	Y13	Z13	X14	Y14	Z14	X15	Y15	Z15	X16	Y16	Z16	X17	Y17	Z17	X18	Y18	Z18	
61	0.508333	-45.337	24.9274	-0.657452	-37.7974	16.6022	-34.4079	-46.9819	10.4321	-64.3896	-73.7396	5.29196	-77.6207	-71.1851	68.1018	-59.7198	-67.8486	74.2316	-88.6545	-62.5405	75.4873	-115.026	-83.0949	39.9719	-71.7425	-73.8425	9.46186	-72.3131	-70.5649	9.60057	-33.0865	-101.19	24.6755	-60.0788	-85.3601	-1.97956	-54.5054	-83.3557	5.34509	-20.8841	-113.306	13.9667	-53.8062	-95.5611	-5.44172	-42.7379	-93.6468	5.66363	-16.0532	-111.076	48.2334	-12.6872	-107.87	36.9153	18.1826	-74.4313	53.0265	7.13312	
62	0.516667	-45.4608	16.2995	1.0253	-36.9508	0.787924	-32.7312	-43.7192	-11.5125	-56.4294	-70.1137	-18.2412	-70.2286	-61.1644	45.308	-73.0357	-54.8616	43.3691	-97.4741	-51.3124	34.4878	-125.516	-76.5247	16.669	-74.065	-64.5956	-14.5432	-66.9999	-70.0274	-6.50748	-29.9511	-93.4393	2.13644	-62.6348	-79.6917	-21.0764	-49.9983	-79.7595	-4.83941	-17.5362	-107.704	-3.08975	-53.813	-92.7595	-21.7713	-37.6522	-92.7509	-4.69362	-10.6539	-106.195	39.8555	-17.4892	-105.465	34.7336	11.5458	-74.5424	45.1161	-2.79421	
63	0.525	-45.7825	4.2957	5.60287	-31.9879	-19.497	-18.0441	-36.1446	-37.6994	-41.6633	-59.193	-47.5786	-55.7346	-42.1839	11.232	-71.8986	-30.0408	-0.146989	-95.2615	-19.771	-13.309	-115.467	-62.1284	-16.7179	-70.5463	-54.0562	-42.8376	-55.7005	-61.4678	-23.1291	-20.9118	-81.0135	-21.6089	-58.4749	-71.648	-43.864	-36.5067	-76.7753	-22.7449	-11.6684	-96.2505	-24.2643	-51.6912	-87.4541	-42.2889	-29.0797	-86.4035	-18.0528	-8.55449	-97.1894	22.8871	-29.1632	-109.382	27.7803	1.54484	-69.086	33.7292	-11.9206	
64	0.533333	-48.0448	-5.55997	9.92685	-30.1697	-33.7703	-1.41342	-28.5374	-58.8434	-27.9716	-48.8969	-69.1005	-40.0293	-27.2681	-14.7675	-64.4424	-10.2768	-29.7889	-80.5581	2.96963	-43.3838	-91.5899	-47.0858	-39.032	-60.6939	-47.4563	-64.2839	-37.9545	-61.6986	-38.5524	-11.8582	-71.3873	-47.007	-51.8782	-68.1473	-62.7243	-25.5958	-73.2197	-35.366	-5.08592	-85.3486	-45.5126	-45.0817	-81.7099	-58.0119	-19.2999	-90.4129	-33.9854	-2.4935	-91.958	5.7063	-34.7733	-104.297	15.3986	-6.98834	-65.1914	17.8242	-12.3163	
65	0.541667	-54.3905	-11.7448	15.0803	-35.7709	-40.6672	0.501392	-32.5997	-63.2313	-14.1643	-45.8154	-78.1352	-34.5008	-26.5524	-20.9078	-52.3928	-7.96941	-39.7602	-68.2844	8.6581	-56.2557	-80.9634	-45.5851	-47.5243	-54.7727	-50.7947	-73.0308	-34.1208	-68.054	-51.3767	-9.95728	-67.0239	-53.6937	-46.742	-70.919	-69.1624	-20.4196	-81.1205	-43.3753	-3.21337	-85.0466	-55.8939	-42.7238	-88.5999	-66.1024	-17.9569	-90.7915	-39.7195	-2.09694	-93.6591	-1.66048	-33.6425	-109.598	10.0166	-14.0543	-72.1278	12.5355	-11.8259	
66	0.55	-69.5455	-14.1795	15.6032	-49.4324	-40.5801	3.67976	-43.4062	-63.0663	-18.4069	-53.7478	-78.7952	-39.7607	-37.4465	-16.7893	-49.6975	-16.9763	-32.0318	-64.0539	0.91381	-48.3745	-76.1524	-58.6831	-44.3442	-59.5581	-55.8777	-70.8463	-42.3899	-79.8472	-50.1511	-13.6622	-80.2174	-51.4817	-52.7378	-85.3097	-70.9793	-29.5118	-92.6627	-48.6322	-7.61279	-100.528	-51.4352	-52.1185	-97.415	-65.43	-27.1958	-109.093	-43.2844	-9.42555	-106.456	0.887055	-36.2617	-123.916	7.49209	-15.1667	-86.6254	12.9716	-10.7171	
67	0.558333	-82.5214	-14.9856	15.4303	-63.6021	-40.3664	1.28531	-53.1236	-60.6359	-23.4403	-68.604	-69.7826	-47.0564	-50.0458	-10.0121	-51.0377	-27.9794	-21.2421	-62.9337	-8.65345	-33.139	-76.0591	-70.6326	-34.1385	-62.4424	-70.4156	-64.3382	-49.4649	-92.3075	-50.0651	-21.8431	-91.1163	-42.715	-59.1615	-95.4779	-64.8489	-36.5067	-104.621	-44.2071	-14.2638	-109.688	-48.1078	-57.7979	-110.515	-61.3272	-33.4805	-118.337	-36.6465	-16.7183	-119.092	6.12014	-37.8377	-135.12	9.04004	-14.9691	-99.4204	13.2659	-8.81012	
68	0.566667	-90.7678	-16.9144	15.4505	-68.851	-39.3934	-2.74351	-62.3914	-52.6498	-28.0476	-72.7316	-62.3806	-54.6945	-53.8821	-0.400415	-51.0485	-31.6735	-7.63817	-67.7625	-17.2413	-15.3738	-82.6381	-75.7546	-22.989	-66.603	-75.92	-53.9558	-59.7349	-96.1425	-44.8842	-27.2019	-95.8674	-30.6425	-63.1938	-100.259	-57.9369	-46.8558	-114.677	-43.0357	-22.0176	-117.411	-38.0122	-65.1069	-114.503	-55.2954	-42.1639	-122.666	-35.7821	-21.8162	-123.663	10.3001	-37.9441	-145.72	12.5962	-13.9379	-107.769	13.3477	-7.61793	
69	0.575	-95.2264	-14.8912	10.633	-70.2233	-30.4396	-13.2329	-61.1228	-41.1003	-40.4115	-73.2261	-48.9496	-64.3191	-60.3525	15.7377	-52.2776	-41.8886	13.7336	-73.4049	-27.1938	11.6086	-90.7145	-80.6716	-11.6162	-72.0345	-78.0163	-41.0343	-68.0786	-99.1359	-35.4873	-32.7504	-103.164	-22.3691	-68.7723	-102.288	-49.6257	-56.894	-112.346	-37.892	-26.3936	-119.57	-29.5765	-69.4775	-113.971	-48.8481	-49.6122	-126.482	-36.8029	-26.3054	-135.007	14.3099	-33.5283	-153.596	8.50548	-7.2768	-114.138	15.5226	-4.89957	
